<?xml version="1.0" encoding="UTF-8" standalone="no"?>
<svg
   xmlns:dc="http://purl.org/dc/elements/1.1/"
   xmlns:cc="http://creativecommons.org/ns#"
   xmlns:rdf="http://www.w3.org/1999/02/22-rdf-syntax-ns#"
   xmlns:svg="http://www.w3.org/2000/svg"
   xmlns="http://www.w3.org/2000/svg"
   xmlns:sodipodi="http://sodipodi.sourceforge.net/DTD/sodipodi-0.dtd"
   xmlns:inkscape="http://www.inkscape.org/namespaces/inkscape"
   version="1.0"
   width="1000.0"
   height="1000.0"
   id="C:\square_overlapping_circle_grid3.svg"
   inkscape:version="0.91 r13725"
   sodipodi:docname="Flower_of_Life_4-circles_square.svg">
  <metadata
     id="metadata4174">
    <rdf:RDF>
      <cc:Work
         rdf:about="">
        <dc:format>image/svg+xml</dc:format>
        <dc:type
           rdf:resource="http://purl.org/dc/dcmitype/StillImage" />
        <dc:title></dc:title>
      </cc:Work>
    </rdf:RDF>
  </metadata>
  <defs
     id="defs4172" />
  <sodipodi:namedview
     pagecolor="#ffffff"
     bordercolor="#666666"
     borderopacity="1"
     objecttolerance="10"
     gridtolerance="10"
     guidetolerance="10"
     inkscape:pageopacity="0"
     inkscape:pageshadow="2"
     inkscape:window-width="1280"
     inkscape:window-height="977"
     id="namedview4170"
     showgrid="false"
     inkscape:zoom="0.472"
     inkscape:cx="501.9329"
     inkscape:cy="336.87954"
     inkscape:window-x="-4"
     inkscape:window-y="-4"
     inkscape:window-maximized="1"
     inkscape:current-layer="C:\square_overlapping_circle_grid3.svg" />
  <polygon
     style="fill-opacity:0;stroke:#000000;stroke-width:4;stroke-opacity:1"
     id="polygon4156"
     points="698.069,446.928 695.02,436.634 691.436,426.514 687.328,416.596 682.706,406.906 677.584,397.472 671.975,388.318 665.894,379.471 659.359,370.954 652.386,362.791 644.997,355.003 637.209,347.614 629.046,340.641 620.529,334.106 611.682,328.025 602.528,322.416 593.094,317.294 583.404,312.672 573.486,308.564 563.366,304.98 553.072,301.931 542.634,299.425 532.078,297.468 521.434,296.067 510.732,295.225 500,294.944 489.268,295.225 478.566,296.067 467.922,297.468 457.366,299.425 446.928,301.931 436.634,304.98 426.514,308.564 416.596,312.672 406.906,317.294 397.472,322.416 388.318,328.025 379.471,334.106 370.954,340.641 362.791,347.614 355.003,355.003 347.614,362.791 340.641,370.954 334.106,379.471 328.025,388.318 322.416,397.472 317.294,406.906 312.672,416.596 308.564,426.514 304.98,436.634 301.931,446.928 299.425,457.366 297.468,467.922 296.067,478.566 295.225,489.268 294.944,500 295.225,510.732 296.067,521.434 297.468,532.078 299.425,542.634 301.931,553.072 304.98,563.366 308.564,573.486 312.672,583.404 317.294,593.094 322.416,602.528 328.025,611.682 334.106,620.529 340.641,629.046 347.614,637.209 355.003,644.997 362.791,652.387 370.954,659.359 379.471,665.894 388.318,671.975 397.472,677.584 406.906,682.706 416.596,687.328 426.514,691.437 436.634,695.02 446.928,698.069 457.366,700.575 467.922,702.532 478.566,703.933 489.268,704.775 500,705.056 510.732,704.775 521.434,703.933 532.078,702.532 542.634,700.575 553.072,698.069 563.366,695.02 573.486,691.437 583.404,687.328 593.094,682.706 602.528,677.584 611.682,671.975 620.529,665.894 629.046,659.359 637.209,652.386 644.997,644.997 652.386,637.209 659.359,629.046 665.894,620.529 671.975,611.682 677.584,602.528 682.706,593.094 687.328,583.404 691.436,573.486 695.02,563.366 698.069,553.072 700.575,542.634 702.532,532.078 703.933,521.434 704.775,510.732 705.056,500 704.775,489.268 703.933,478.566 702.532,467.922 700.575,457.366 "
     transform="matrix(1.3851149,0,0,1.3972197,9.4694798,3.0536291)" />
  <polygon
     style="fill-opacity:0;stroke:#000000;stroke-width:4;stroke-opacity:1"
     id="polygon4158"
     points="408.076,156.934 405.027,146.641 401.443,136.521 397.335,126.603 392.713,116.913 387.591,107.479 381.981,98.325 375.901,89.478 369.365,80.961 362.393,72.797 355.003,65.01 347.216,57.62 339.053,50.648 330.536,44.113 321.688,38.032 312.535,32.423 303.1,27.3 293.411,22.679 283.492,18.57 273.373,14.987 263.079,11.938 252.64,9.431 242.085,7.475 231.441,6.074 220.739,5.232 210.007,4.95 199.275,5.232 188.572,6.074 177.929,7.475 167.373,9.431 156.934,11.938 146.641,14.987 136.521,18.57 126.603,22.679 116.913,27.3 107.479,32.423 98.325,38.032 89.478,44.113 80.961,50.648 72.797,57.62 65.01,65.01 57.62,72.797 50.648,80.961 44.113,89.478 38.032,98.325 32.423,107.479 27.3,116.913 22.679,126.603 18.57,136.521 14.987,146.641 11.938,156.934 9.431,167.373 7.475,177.929 6.074,188.572 5.232,199.275 4.95,210.007 5.232,220.739 6.074,231.441 7.475,242.085 9.431,252.64 11.938,263.079 14.987,273.373 18.57,283.492 22.679,293.411 27.3,303.1 32.423,312.535 38.032,321.688 44.113,330.536 50.648,339.053 57.62,347.216 65.01,355.003 72.797,362.393 80.961,369.365 89.478,375.901 98.325,381.981 107.479,387.591 116.913,392.713 126.603,397.335 136.521,401.443 146.641,405.027 156.934,408.076 167.373,410.582 177.929,412.538 188.573,413.94 199.275,414.782 210.007,415.063 220.739,414.782 231.441,413.94 242.085,412.538 252.64,410.582 263.079,408.076 273.373,405.027 283.492,401.443 293.411,397.335 303.1,392.713 312.535,387.591 321.688,381.981 330.536,375.901 339.053,369.365 347.216,362.393 355.003,355.003 362.393,347.216 369.365,339.053 375.901,330.536 381.981,321.688 387.591,312.535 392.713,303.1 397.335,293.411 401.443,283.492 405.027,273.373 408.076,263.079 410.582,252.64 412.538,242.085 413.94,231.441 414.782,220.739 415.063,210.007 414.782,199.275 413.94,188.572 412.538,177.929 410.582,167.373 "
     transform="matrix(1.3851149,0,0,1.3972197,9.4694798,3.0536291)" />
  <polygon
     style="fill-opacity:0;stroke:#000000;stroke-width:4;stroke-opacity:1"
     id="polygon4164"
     points="408.076,446.928 405.027,436.634 401.443,426.514 397.335,416.596 392.713,406.906 387.591,397.472 381.981,388.318 375.901,379.471 369.365,370.954 362.393,362.791 355.003,355.003 347.216,347.614 339.053,340.641 330.536,334.106 321.688,328.025 312.535,322.416 303.1,317.294 293.411,312.672 283.492,308.564 273.373,304.98 263.079,301.931 252.64,299.425 242.085,297.468 231.441,296.067 220.739,295.225 210.007,294.944 199.275,295.225 188.572,296.067 177.929,297.468 167.373,299.425 156.934,301.931 146.641,304.98 136.521,308.564 126.603,312.672 116.913,317.294 107.479,322.416 98.325,328.025 89.478,334.106 80.961,340.641 72.797,347.614 65.01,355.003 57.62,362.791 50.648,370.954 44.113,379.471 38.032,388.318 32.423,397.472 27.3,406.906 22.679,416.596 18.57,426.514 14.987,436.634 11.938,446.928 9.431,457.366 7.475,467.922 6.074,478.566 5.232,489.268 4.95,500 5.232,510.732 6.074,521.434 7.475,532.078 9.431,542.634 11.938,553.072 14.987,563.366 18.57,573.486 22.679,583.404 27.3,593.094 32.423,602.528 38.032,611.682 44.113,620.529 50.648,629.046 57.62,637.209 65.01,644.997 72.797,652.387 80.961,659.359 89.478,665.894 98.325,671.975 107.479,677.584 116.913,682.706 126.603,687.328 136.521,691.436 146.641,695.02 156.934,698.069 167.373,700.575 177.929,702.532 188.573,703.933 199.275,704.775 210.007,705.056 220.739,704.775 231.441,703.933 242.085,702.532 252.64,700.575 263.079,698.069 273.373,695.02 283.492,691.436 293.411,687.328 303.1,682.706 312.535,677.584 321.688,671.975 330.536,665.894 339.053,659.359 347.216,652.386 355.003,644.997 362.393,637.209 369.365,629.046 375.901,620.529 381.981,611.682 387.591,602.528 392.713,593.094 397.335,583.404 401.443,573.486 405.027,563.366 408.076,553.072 410.582,542.634 412.538,532.078 413.94,521.434 414.782,510.732 415.063,500 414.782,489.268 413.94,478.566 412.538,467.922 410.582,457.366 "
     transform="matrix(1.3851149,0,0,1.3972197,9.4694798,3.0536291)" />
  <polygon
     style="fill-opacity:0;stroke:#000000;stroke-width:4;stroke-opacity:1"
     id="polygon4168"
     points="698.069,156.934 695.02,146.641 691.436,136.521 687.328,126.603 682.706,116.913 677.584,107.479 671.975,98.325 665.894,89.478 659.359,80.961 652.386,72.797 644.997,65.01 637.209,57.62 629.046,50.648 620.529,44.113 611.682,38.032 602.528,32.423 593.094,27.3 583.404,22.679 573.486,18.57 563.366,14.987 553.072,11.938 542.634,9.431 532.078,7.475 521.434,6.074 510.732,5.232 500,4.95 489.268,5.232 478.566,6.074 467.922,7.475 457.366,9.431 446.928,11.938 436.634,14.987 426.514,18.57 416.596,22.679 406.906,27.3 397.472,32.423 388.318,38.032 379.471,44.113 370.954,50.648 362.791,57.62 355.003,65.01 347.614,72.797 340.641,80.961 334.106,89.478 328.025,98.325 322.416,107.479 317.294,116.913 312.672,126.603 308.564,136.521 304.98,146.641 301.931,156.934 299.425,167.373 297.468,177.929 296.067,188.572 295.225,199.275 294.944,210.007 295.225,220.739 296.067,231.441 297.468,242.085 299.425,252.64 301.931,263.079 304.98,273.373 308.564,283.492 312.672,293.411 317.294,303.1 322.416,312.535 328.025,321.688 334.106,330.536 340.641,339.053 347.614,347.216 355.003,355.003 362.791,362.393 370.954,369.365 379.471,375.901 388.318,381.981 397.472,387.591 406.906,392.713 416.596,397.335 426.514,401.443 436.634,405.027 446.928,408.076 457.366,410.582 467.922,412.538 478.566,413.94 489.268,414.782 500,415.063 510.732,414.782 521.434,413.94 532.078,412.538 542.634,410.582 553.072,408.076 563.366,405.027 573.486,401.443 583.404,397.335 593.094,392.713 602.528,387.591 611.682,381.981 620.529,375.901 629.046,369.365 637.209,362.393 644.997,355.003 652.386,347.216 659.359,339.053 665.894,330.536 671.975,321.688 677.584,312.535 682.706,303.1 687.328,293.411 691.436,283.492 695.02,273.373 698.069,263.079 700.575,252.64 702.532,242.085 703.933,231.441 704.775,220.739 705.056,210.007 704.775,199.275 703.933,188.572 702.532,177.929 700.575,167.373 "
     transform="matrix(1.3851149,0,0,1.3972197,9.4694798,3.0536291)" />
</svg>
