<svg id="visual" viewBox="0 0 300 300" width="300" height="300" xmlns="http://www.w3.org/2000/svg" xmlns:xlink="http://www.w3.org/1999/xlink" version="1.1"><g transform="translate(170.16347310757766 166.1217981700411)"><path d="M65.2 -80.4C78.2 -66.9 78 -40.3 74.9 -19C71.8 2.4 65.8 18.4 55.1 27.1C44.5 35.8 29.3 37.2 16.6 39C3.9 40.7 -6.3 42.9 -30.3 49C-54.2 55.1 -92.1 65 -107.9 54.2C-123.7 43.5 -117.5 11.9 -99.9 -5.4C-82.2 -22.7 -53.2 -25.7 -34.6 -38.3C-16.1 -50.8 -8 -72.9 9.1 -83.7C26.1 -94.5 52.3 -94 65.2 -80.4" fill="#ffffff"></path></g></svg>