<svg id="visual" viewBox="0 0 300 300" width="300" height="300" xmlns="http://www.w3.org/2000/svg" xmlns:xlink="http://www.w3.org/1999/xlink" version="1.1"><g transform="translate(135.28259839021416 128.35441521600256)"><path d="M41.1 -47.6C58.1 -34.6 80.3 -26.3 89.6 -10.4C98.9 5.6 95.3 29.3 85.3 51.6C75.2 73.9 58.6 94.7 34.8 109.4C10.9 124 -20.2 132.5 -35.3 117.9C-50.4 103.3 -49.6 65.7 -53.2 40.1C-56.8 14.5 -64.8 0.8 -65.5 -14.3C-66.2 -29.5 -59.4 -46.2 -47.3 -60C-35.1 -73.9 -17.6 -84.9 -2.8 -81.6C12 -78.3 24 -60.6 41.1 -47.6" fill="#ffffff"></path></g></svg>